<?xml version="1.0" encoding="UTF-8" standalone="no"?><!DOCTYPE svg PUBLIC "-//W3C//DTD SVG 1.1//EN" "http://www.w3.org/Graphics/SVG/1.1/DTD/svg11.dtd"><svg width="100%" height="100%" viewBox="0 0 8000 2084" version="1.1" xmlns="http://www.w3.org/2000/svg" xmlns:xlink="http://www.w3.org/1999/xlink" xml:space="preserve" xmlns:serif="http://www.serif.com/" style="fill-rule:evenodd;clip-rule:evenodd;stroke-linecap:round;stroke-linejoin:round;stroke-miterlimit:1.5;"><rect x="277.335" y="140.406" width="1276.91" height="811.559" style="fill:#fff;stroke:#000;stroke-width:8.33px;"/><rect x="1742.9" y="686.879" width="852.707" height="593.613" style="fill:#fff;stroke:#000;stroke-width:8.33px;"/><rect x="5411.64" y="766.006" width="1616.68" height="546.592" style="fill:#fff;stroke:#000;stroke-width:8.33px;"/><rect x="5411.64" y="1545.17" width="1616.68" height="397.755" style="fill:#fff;stroke:#000;stroke-width:8.33px;"/><rect x="4209.7" y="404.55" width="827.586" height="320.77" style="fill:#fff;stroke:#000;stroke-width:8.33px;"/><rect x="4209.7" y="1242.05" width="827.586" height="320.77" style="fill:#fff;stroke:#000;stroke-width:8.33px;"/><g transform="matrix(4.16667,0,0,4.16667,987.75,-505.223)"><text x="242.175px" y="321.541px" style="font-family:'Ebrima';font-size:20px;">10 richtig</text><text x="200.602px" y="342.141px" style="font-family:'Ebrima';font-size:20px;">positionierte Slider</text><text x="276.73px" y="364.141px" style="font-family:'Ebrima';font-size:20px;">=</text><text x="232.477px" y="386.741px" style="font-family:'Ebrima';font-size:20px;">1 Los in der</text><text x="231.159px" y="407.341px" style="font-family:'Ebrima';font-size:20px;">Lostrommel</text></g><g transform="matrix(4.16667,0,0,4.16667,-481.783,-800.821)"><text x="194.002px" y="321.541px" style="font-family:'Ebrima';font-size:20px;">Versucht so viele Slider wie</text><text x="194.002px" y="342.141px" style="font-family:'Ebrima';font-size:20px;">möglich richtig zu positionieren.</text></g><text x="800.951px" y="848.388px" style="font-family:'Ebrima-Bold', 'Ebrima';font-weight:700;font-size:83.333px;">2 Minuten</text><text x="684.534px" y="338.674px" style="font-family:'Ebrima-Bold', 'Ebrima';font-weight:700;font-size:125px;">Spieler/in A</text><path id="Timer" d="M692.205,742.373c43.615,3.785 77.778,41.133 77.778,85.028c-0,24.26 -10.367,47.458 -28.438,63.643c-15.665,14.031 -36.012,21.691 -56.978,21.691c-3.2,0 -6.417,-0.181 -9.628,-0.54c-38.441,-4.324 -69.852,-35.336 -74.686,-73.741c-3.342,-26.584 5.504,-52.618 24.268,-71.405c3.103,-3.109 8.131,-3.109 11.234,-0c3.098,3.108 3.098,8.143 -0.006,11.252c-15.263,15.292 -22.457,36.49 -19.728,58.17c3.927,31.199 29.448,56.391 60.694,59.909c20.074,2.279 39.337,-3.847 54.243,-17.196c14.701,-13.168 23.138,-32.041 23.138,-51.783c-0,-35.081 -26.809,-65.018 -61.381,-68.991l0,23.295c0,4.393 -3.557,7.956 -7.943,7.956c-4.386,-0 -7.943,-3.563 -7.943,-7.956l-0,-25.266c-0,-3.933 1.662,-7.718 4.556,-10.383c2.922,-2.677 6.882,-4.058 10.82,-3.683Zm-22.665,91.876l-25.68,-44.435c-0.636,-1.102 0.596,-2.33 1.69,-1.693l44.353,25.721c9.674,5.609 11.331,16.344 4.097,24.504c-8.131,7.235 -18.872,5.575 -24.46,-4.097Z"/><path id="Person" d="M516.14,187.759c-57.5,-0 -104.167,46.666 -104.167,104.166c0,57.5 46.667,104.167 104.167,104.167c57.5,0 104.167,-46.667 104.167,-104.167c-0,-57.5 -46.667,-104.166 -104.167,-104.166Zm63.622,175.828c19.759,-17.556 32.211,-43.158 32.211,-71.662c0,-52.916 -42.916,-95.833 -95.833,-95.833c-52.917,0 -95.833,42.917 -95.833,95.833c-0,28.504 12.451,54.106 32.211,71.662c11.314,-0.351 26.786,2.503 40.774,-13.224c4.09,-4.599 3.23,-17.176 2.015,-20.938c-4.92,-2.422 -8.101,-9.644 -8.334,-25c-4.573,0.07 -7.51,-1.544 -8.333,-4.166c-2.958,-9.425 -6.737,-19.426 -0,-29.167c-9.086,-34.465 12.5,-54.166 37.5,-54.167c24.999,0 46.586,19.702 37.5,54.167c6.737,9.741 2.958,19.742 -0,29.167c-0.823,2.622 -3.76,4.236 -8.333,4.166c-0.233,15.356 -3.414,22.578 -8.334,25c-1.215,3.762 -2.075,16.339 2.015,20.938c13.988,15.727 29.46,12.873 40.774,13.224Z"/><rect x="277.335" y="1015.41" width="1276.91" height="811.559" style="fill:#fff;stroke:#000;stroke-width:8.33px;"/><g transform="matrix(4.16667,0,0,4.16667,-481.783,74.1788)"><text x="194.002px" y="321.541px" style="font-family:'Ebrima';font-size:20px;">Versucht so viele Slider wie</text><text x="194.002px" y="342.141px" style="font-family:'Ebrima';font-size:20px;">möglich richtig zu positionieren.</text></g><text x="800.951px" y="1723.39px" style="font-family:'Ebrima-Bold', 'Ebrima';font-weight:700;font-size:83.333px;">2 Minuten</text><text x="684.534px" y="1213.67px" style="font-family:'Ebrima-Bold', 'Ebrima';font-weight:700;font-size:125px;">Spieler/in B</text><path id="Timer1" serif:id="Timer" d="M692.205,1617.37c43.615,3.785 77.778,41.133 77.778,85.028c-0,24.26 -10.367,47.458 -28.438,63.643c-15.665,14.031 -36.012,21.691 -56.978,21.691c-3.2,0 -6.417,-0.181 -9.628,-0.54c-38.441,-4.324 -69.852,-35.336 -74.686,-73.741c-3.342,-26.584 5.504,-52.618 24.268,-71.405c3.103,-3.109 8.131,-3.109 11.234,-0c3.098,3.108 3.098,8.143 -0.006,11.252c-15.263,15.292 -22.457,36.49 -19.728,58.17c3.927,31.199 29.448,56.391 60.694,59.909c20.074,2.279 39.337,-3.847 54.243,-17.196c14.701,-13.168 23.138,-32.041 23.138,-51.783c-0,-35.081 -26.809,-65.018 -61.381,-68.991l0,23.295c0,4.393 -3.557,7.956 -7.943,7.956c-4.386,-0 -7.943,-3.563 -7.943,-7.956l-0,-25.266c-0,-3.933 1.662,-7.718 4.556,-10.383c2.922,-2.677 6.882,-4.058 10.82,-3.683Zm-22.665,91.876l-25.68,-44.435c-0.636,-1.102 0.596,-2.33 1.69,-1.693l44.353,25.721c9.674,5.609 11.331,16.344 4.097,24.504c-8.131,7.235 -18.872,5.575 -24.46,-4.097Z"/><path id="Person1" serif:id="Person" d="M516.14,1062.76c-57.5,-0 -104.167,46.666 -104.167,104.166c0,57.5 46.667,104.167 104.167,104.167c57.5,0 104.167,-46.667 104.167,-104.167c-0,-57.5 -46.667,-104.166 -104.167,-104.166Zm63.622,175.828c19.759,-17.556 32.211,-43.158 32.211,-71.662c0,-52.916 -42.916,-95.833 -95.833,-95.833c-52.917,0 -95.833,42.917 -95.833,95.833c-0,28.504 12.451,54.106 32.211,71.662c11.314,-0.351 26.786,2.503 40.774,-13.224c4.09,-4.599 3.23,-17.176 2.015,-20.938c-4.92,-2.422 -8.101,-9.644 -8.334,-25c-4.573,0.07 -7.51,-1.544 -8.333,-4.166c-2.958,-9.425 -6.737,-19.426 -0,-29.167c-9.086,-34.465 12.5,-54.166 37.5,-54.167c24.999,0 46.586,19.702 37.5,54.167c6.737,9.741 2.958,19.742 -0,29.167c-0.823,2.622 -3.76,4.236 -8.333,4.166c-0.233,15.356 -3.414,22.578 -8.334,25c-1.215,3.762 -2.075,16.339 2.015,20.938c13.988,15.727 29.46,12.873 40.774,13.224Z"/><g transform="matrix(4.16667,0,0,4.16667,4641.79,-467.153)"><text x="316.978px" y="326.943px" style="font-family:'Ebrima-Bold', 'Ebrima';font-weight:700;font-size:30px;">Option 1</text><text x="194.002px" y="361.543px" style="font-family:'Ebrima';font-size:20px;">Bis zu weitere 2,50 € dazuverdienen.</text><text x="194.002px" y="394.143px" style="font-family:'Ebrima';font-size:20px;">Pro 10 richtig positionierte Slider, 10 Cent</text><text x="194.002px" y="414.743px" style="font-family:'Ebrima';font-size:20px;">erhalten.</text></g><g transform="matrix(4.16667,0,0,4.16667,184.077,-668.916)"><text x="1728.58px" y="481.627px" style="font-family:'Ebrima-Bold', 'Ebrima';font-weight:700;font-size:20px;">zufällige</text><text x="1729.06px" y="502.227px" style="font-family:'Ebrima-Bold', 'Ebrima';font-weight:700;font-size:20px;">Auswahl</text></g><g transform="matrix(4.16667,0,0,4.16667,4641.79,312.013)"><text x="316.978px" y="326.943px" style="font-family:'Ebrima-Bold', 'Ebrima';font-weight:700;font-size:30px;">Option 2</text><text x="194.002px" y="361.543px" style="font-family:'Ebrima';font-size:20px;">Dem/der Gewinner/in zwischen 0,- € und</text><text x="194.002px" y="382.143px" style="font-family:'Ebrima';font-size:20px;">2,50 € abziehen.</text></g><g transform="matrix(4.16667,0,0,4.16667,3421.07,-828.609)"><text x="201.359px" y="326.943px" style="font-family:'Ebrima-Bold', 'Ebrima';font-weight:700;font-size:30px;">Gewinner/in</text><text x="238.895px" y="361.543px" style="font-family:'Ebrima';font-size:20px;">Erhält 5,- €.</text></g><g transform="matrix(4.16667,0,0,4.16667,3421.07,8.89075)"><text x="207.811px" y="326.943px" style="font-family:'Ebrima-Bold', 'Ebrima';font-weight:700;font-size:30px;">Verlierer/in</text><text x="232.113px" y="361.543px" style="font-family:'Ebrima';font-size:20px;">Erhält 2,50 €.</text></g><path d="M4061.11,637.401l83.589,-6.644l-44.839,70.858l-38.75,-64.214Z"/><path d="M3872.62,794.947c-0,-0 141.852,-85.604 220.706,-133.189" style="fill:none;stroke:#000;stroke-width:8.33px;"/><path d="M2831.23,946.185l75,37.5l-75,37.5l-0,-75Z"/><path d="M2655.22,983.685l191.008,0" style="fill:none;stroke:#000;stroke-width:8.33px;"/><path d="M4099.86,1265.76l44.839,70.857l-83.589,-6.644l38.75,-64.213Z"/><path d="M3872.62,1172.42c-0,0 141.852,85.603 220.706,133.189" style="fill:none;stroke:#000;stroke-width:8.33px;"/><path d="M2017.67,545.497l-5.19,83.691l-63.839,-54.367l69.029,-29.324Z"/><path d="M1615.81,409.614c196.801,-7.327 313.861,52.961 373.218,164.351" style="fill:none;stroke:#000;stroke-width:8.33px;"/><path d="M1948.65,1392.55l63.839,-54.367l5.19,83.692l-69.029,-29.325Z"/><path d="M1615.81,1557.76c196.801,7.327 313.861,-52.961 373.218,-164.351" style="fill:none;stroke:#000;stroke-width:8.33px;"/><path d="M5277.01,1164.67l83.802,-2.894l-47.966,68.778l-35.836,-65.884Z"/><path d="M5088.73,1309.76c0,0 140.266,-76.293 219.376,-119.322" style="fill:none;stroke:#000;stroke-width:8.33px;"/><path d="M5312.85,1574.32l47.966,68.779l-83.802,-2.894l35.836,-65.885Z"/><path d="M5088.73,1495.11c0,0 140.266,76.294 219.376,119.323" style="fill:none;stroke:#000;stroke-width:8.33px;"/><g><path d="M3200.26,1624.95c0,0 149.784,-506.917 193.844,-656.034c1.578,-5.341 6.483,-9.006 12.053,-9.006c5.569,-0 10.474,3.665 12.052,9.006c44.061,149.117 193.844,656.034 193.844,656.034" style="fill:none;stroke:#000;stroke-width:8.33px;"/><g><path d="M3520.76,580.776l111.305,0l225.814,391.121l-225.814,391.121l-451.627,-0l-225.814,-391.121l225.814,-391.121l111.117,0" style="fill:#fff;stroke:#000;stroke-width:8.33px;"/><path d="M3292.38,580.776l161.149,-161.149" style="fill:none;stroke:#000;stroke-width:8.33px;"/></g><g><circle cx="3693.78" cy="414.332" r="67.744" style="fill:#fff;stroke:#000;stroke-width:6.25px;"/><text x="3667.68px" y="452.821px" style="font-family:'Ebrima';font-size:116.009px;">?</text></g><g><path d="M3276.8,1241.79c24.094,28.59 20.444,71.363 -8.146,95.457c-28.59,24.095 -71.363,20.444 -95.457,-8.146c-24.094,-28.59 -20.444,-71.363 8.146,-95.457c28.59,-24.094 71.363,-20.444 95.457,8.146Z" style="fill:#fff;stroke:#000;stroke-width:6.25px;"/><g transform="matrix(0.644422,0.76467,-0.76467,0.644422,-185.044,-2234.3)"><text x="4851.43px" y="-305.029px" style="font-family:'Ebrima';font-size:116.009px;">A</text></g></g><g><path d="M3474.77,1339.49c-30.862,-21.107 -38.781,-63.298 -17.675,-94.16c21.107,-30.862 63.298,-38.782 94.16,-17.675c30.862,21.107 38.782,63.298 17.675,94.16c-21.107,30.861 -63.298,38.781 -94.16,17.675Z" style="fill:#fff;stroke:#000;stroke-width:6.25px;"/><g transform="matrix(-0.825423,-0.564514,0.564514,-0.825423,7290.54,9346.05)"><text x="7631.93px" y="4556.81px" style="font-family:'Ebrima';font-size:116.009px;">A</text></g></g><g><path d="M3416.82,1172.36c-18.181,32.671 -59.465,44.436 -92.137,26.256c-32.671,-18.18 -44.436,-59.465 -26.256,-92.136c18.18,-32.672 59.465,-44.436 92.137,-26.256c32.671,18.18 44.436,59.465 26.256,92.136Z" style="fill:#fff;stroke:#000;stroke-width:6.25px;"/><g transform="matrix(-0.486245,0.873823,-0.873823,-0.486245,7564.01,-5725.69)"><text x="8006.7px" y="371.84px" style="font-family:'Ebrima';font-size:116.009px;">A</text></g></g><g><path d="M3676.53,949.948c-11.027,-35.726 9.026,-73.683 44.752,-84.71c35.726,-11.026 73.683,9.027 84.709,44.753c11.027,35.725 -9.026,73.683 -44.752,84.709c-35.725,11.027 -73.683,-9.026 -84.709,-44.752Z" style="fill:#fff;stroke:#000;stroke-width:6.25px;"/><g transform="matrix(-0.294917,-0.955523,0.955523,-0.294917,1102.37,8178.17)"><text x="6110.05px" y="4693.45px" style="font-family:'Ebrima';font-size:116.009px;">A</text></g></g><g><path d="M3589.51,936.668c-35.572,-11.514 -55.104,-49.741 -43.591,-85.313c11.513,-35.572 49.741,-55.105 85.313,-43.592c35.572,11.514 55.104,49.741 43.591,85.313c-11.513,35.572 -49.74,55.105 -85.313,43.592Z" style="fill:#fff;stroke:#000;stroke-width:6.25px;"/><g transform="matrix(-0.951408,-0.307933,0.307933,-0.951408,10447.3,6839.97)"><text x="8304.83px" y="3606.78px" style="font-family:'Ebrima';font-size:116.009px;">A</text></g></g><g><path d="M3138.7,864.762c35.173,-12.682 74.024,5.578 86.706,40.751c12.682,35.172 -5.578,74.024 -40.751,86.705c-35.172,12.682 -74.024,-5.578 -86.705,-40.75c-12.682,-35.173 5.578,-74.024 40.75,-86.706Z" style="fill:#fff;stroke:#000;stroke-width:6.25px;"/><g transform="matrix(0.94072,-0.339183,0.339183,0.94072,-276.008,189.531)"><text x="2945.74px" y="1895.48px" style="font-family:'Ebrima';font-size:116.009px;">A</text></g></g><g><path d="M3290.35,1080.05c-37.126,4.433 -70.866,-22.109 -75.298,-59.235c-4.433,-37.125 22.109,-70.865 59.234,-75.298c37.125,-4.432 70.865,22.11 75.298,59.235c4.433,37.125 -22.109,70.865 -59.234,75.298Z" style="fill:#fff;stroke:#000;stroke-width:6.25px;"/><g transform="matrix(-0.992947,0.118561,-0.118561,-0.992947,12074.7,2635.46)"><text x="8500.49px" y="2687.98px" style="font-family:'Ebrima';font-size:116.009px;">A</text></g></g><g><path d="M3243.3,1081.9c33.225,17.147 46.279,58.042 29.132,91.268c-17.147,33.225 -58.042,46.278 -91.268,29.131c-33.225,-17.146 -46.278,-58.042 -29.132,-91.267c17.147,-33.226 58.043,-46.279 91.268,-29.132Z" style="fill:#fff;stroke:#000;stroke-width:6.25px;"/><g transform="matrix(0.888638,0.458609,-0.458609,0.888638,-264.34,-728.73)"><text x="3909.87px" y="102.426px" style="font-family:'Ebrima';font-size:116.009px;">A</text></g></g><g><path d="M3326.05,1235.04c28.851,-23.782 71.581,-19.666 95.363,9.185c23.781,28.851 19.665,71.582 -9.186,95.363c-28.85,23.781 -71.581,19.666 -95.363,-9.185c-23.781,-28.851 -19.665,-71.582 9.186,-95.363Z" style="fill:#fff;stroke:#000;stroke-width:6.25px;"/><g transform="matrix(0.771643,-0.636055,0.636055,0.771643,-1212.63,983.269)"><text x="3308.75px" y="3191.53px" style="font-family:'Ebrima';font-size:116.009px;">B</text></g></g><g><path d="M3660.34,1265.27c-34.666,14.008 -74.183,-2.763 -88.191,-37.429c-14.007,-34.666 2.764,-74.182 37.43,-88.19c34.666,-14.008 74.182,2.763 88.19,37.429c14.008,34.666 -2.764,74.182 -37.429,88.19Z" style="fill:#fff;stroke:#000;stroke-width:6.25px;"/><g transform="matrix(-0.927165,0.374653,-0.374653,-0.927165,12737.5,-208.024)"><text x="8934.66px" y="2145.2px" style="font-family:'Ebrima';font-size:116.009px;">B</text></g></g><g><path d="M3565.92,1111.8c15.298,34.116 0.019,74.234 -34.097,89.531c-34.117,15.297 -74.234,0.019 -89.531,-34.098c-15.298,-34.116 -0.019,-74.234 34.097,-89.531c34.117,-15.297 74.234,-0.019 89.531,34.098Z" style="fill:#fff;stroke:#000;stroke-width:6.25px;"/><g transform="matrix(0.40914,0.912472,-0.912472,0.40914,500.009,-3992.19)"><text x="5878.28px" y="-598.917px" style="font-family:'Ebrima';font-size:116.009px;">B</text></g></g><g><path d="M3031.07,1028.4c15.297,-34.116 55.415,-49.395 89.531,-34.098c34.117,15.297 49.395,55.415 34.098,89.531c-15.297,34.117 -55.415,49.395 -89.531,34.098c-34.116,-15.297 -49.395,-55.414 -34.098,-89.531Z" style="fill:#fff;stroke:#000;stroke-width:6.25px;"/><g transform="matrix(0.409138,-0.912473,0.912473,0.409138,-2067.58,2833.41)"><text x="3699.72px" y="4024.28px" style="font-family:'Ebrima';font-size:116.009px;">B</text></g></g><g><path d="M3737.86,1008.58c34.264,14.961 49.936,54.927 34.974,89.192c-14.961,34.265 -54.927,49.936 -89.192,34.974c-34.265,-14.961 -49.936,-54.927 -34.975,-89.192c14.962,-34.265 54.928,-49.936 89.193,-34.974Z" style="fill:#fff;stroke:#000;stroke-width:6.25px;"/><g transform="matrix(0.916443,0.400165,-0.400165,0.916443,-194.749,-765.114)"><text x="4280.43px" y="162.195px" style="font-family:'Ebrima';font-size:116.009px;">B</text></g></g><g><path d="M3639.79,1039.55c-14.625,34.41 -54.435,50.473 -88.845,35.848c-34.41,-14.624 -50.473,-54.434 -35.848,-88.844c14.625,-34.41 54.435,-50.473 88.844,-35.849c34.41,14.625 50.473,54.435 35.849,88.845Z" style="fill:#fff;stroke:#000;stroke-width:6.25px;"/><g transform="matrix(-0.391153,0.920326,-0.920326,-0.391153,6716.6,-6406.79)"><text x="8023.2px" y="29.399px" style="font-family:'Ebrima';font-size:116.009px;">B</text></g></g><g><path d="M3320.47,938.043c-37.388,-0.267 -67.526,-30.838 -67.259,-68.226c0.268,-37.388 30.839,-67.525 68.227,-67.258c37.388,0.267 67.525,30.838 67.258,68.226c-0.267,37.388 -30.838,67.525 -68.226,67.258Z" style="fill:#fff;stroke:#000;stroke-width:6.25px;"/><g transform="matrix(-0.999974,-0.00714338,0.00714338,-0.999974,11772.6,3756.32)"><text x="8438.69px" y="2868.23px" style="font-family:'Ebrima';font-size:116.009px;">B</text></g></g><g><path d="M3420.49,944.596c36.941,-5.773 71.619,19.53 77.393,56.47c5.773,36.941 -19.53,71.619 -56.47,77.393c-36.941,5.774 -71.619,-19.53 -77.393,-56.47c-5.774,-36.94 19.53,-71.619 56.47,-77.393Z" style="fill:#fff;stroke:#000;stroke-width:6.25px;"/><g transform="matrix(0.988005,-0.154424,0.154424,0.988005,-61.1537,118.672)"><text x="3278.98px" y="1464.07px" style="font-family:'Ebrima';font-size:116.009px;">B</text></g></g><g><path d="M3400.55,882.939c-8.342,-36.446 14.475,-72.809 50.921,-81.151c36.447,-8.342 72.809,14.475 81.152,50.921c8.342,36.446 -14.475,72.809 -50.921,81.151c-36.447,8.343 -72.809,-14.474 -81.152,-50.921Z" style="fill:#fff;stroke:#000;stroke-width:6.25px;"/><g transform="matrix(-0.223121,-0.974791,0.974791,-0.223121,282.009,7420.6)"><text x="5643.68px" y="4609.01px" style="font-family:'Ebrima';font-size:116.009px;">B</text></g></g><path d="M3561.2,433.244c-90.037,34.637 -177.9,112.197 -210.177,201.471" style="fill:none;stroke:#000;stroke-width:3.33px;"/><path d="M3541.87,494.219c-56.394,29.66 -94.235,66.951 -114.724,118.466" style="fill:none;stroke:#000;stroke-width:2.08px;"/></g><g><path d="M7083.89,766.552c5.297,0.488 11.064,1.175 17.22,2.368c7.58,1.468 15.555,3.892 23.613,8.417c6.422,3.606 12.787,8.594 19.02,15.539c7.004,7.805 13.677,18.098 19.886,31.725c8.086,17.747 15.192,41.045 20.829,71.749c7.891,42.983 13.034,100.242 12.913,176.71c0.147,53.873 2.246,99.792 7.204,137.934c2.66,20.467 6.112,38.717 10.43,54.758c3.582,13.308 7.728,25.123 12.524,35.422c10.349,22.223 23.237,37.863 39.168,46.414c11.627,6.241 24.726,8.598 39.379,7.502c0.432,0 0.783,-0.351 0.783,-0.783c0,-0.433 -0.351,-0.784 -0.783,-0.784c-13.734,-1.027 -25.319,-5.272 -35.508,-12.282c-13.533,-9.31 -24.145,-23.976 -32.394,-44.664c-3.987,-9.999 -7.439,-21.325 -10.429,-34.037c-3.688,-15.678 -6.638,-33.421 -8.948,-53.296c-4.382,-37.711 -6.492,-83.01 -6.346,-136.184c-0.124,-77.665 -5.111,-135.892 -13.738,-179.43c-6.348,-32.037 -14.543,-56.253 -23.719,-74.477c-7.389,-14.675 -15.409,-25.569 -23.676,-33.571c-7.583,-7.339 -15.307,-12.35 -22.968,-15.615c-9.267,-3.95 -18.289,-5.521 -26.699,-5.812c-6.411,-0.221 -12.343,0.331 -17.761,0.83c-0.432,0 -0.783,0.351 -0.783,0.784c-0,0.432 0.351,0.783 0.783,0.783Z"/><path d="M7083.89,1943.42c5.418,0.499 11.35,1.05 17.76,0.829c8.411,-0.29 17.433,-1.861 26.7,-5.811c7.661,-3.265 15.385,-8.276 22.968,-15.615c8.267,-8.003 16.287,-18.896 23.676,-33.571c9.176,-18.224 17.371,-42.44 23.719,-74.477c8.627,-43.539 13.614,-101.765 13.738,-179.431c-0.146,-53.173 1.964,-98.472 6.346,-136.183c2.31,-19.875 5.26,-37.619 8.948,-53.296c2.99,-12.712 6.442,-24.038 10.429,-34.037c8.249,-20.688 18.861,-35.354 32.394,-44.664c10.189,-7.01 21.774,-11.255 35.508,-12.282c0.432,-0 0.783,-0.352 0.783,-0.784c0,-0.433 -0.351,-0.784 -0.783,-0.784c-14.653,-1.095 -27.752,1.262 -39.379,7.503c-15.93,8.551 -28.819,24.191 -39.168,46.414c-4.796,10.299 -8.942,22.113 -12.524,35.422c-4.318,16.041 -7.77,34.291 -10.43,54.757c-4.958,38.143 -7.057,84.062 -7.204,137.934c0.121,76.468 -5.022,133.728 -12.913,176.71c-5.637,30.705 -12.743,54.002 -20.829,71.75c-6.209,13.627 -12.882,23.92 -19.886,31.724c-6.233,6.946 -12.598,11.934 -19.02,15.54c-8.058,4.525 -16.033,6.949 -23.613,8.417c-6.156,1.193 -11.923,1.88 -17.22,2.368c-0.432,-0 -0.783,0.351 -0.783,0.783c-0,0.433 0.351,0.784 0.783,0.784Z"/></g></svg>